<?xml version="1.0" encoding="iso-8859-1"?>
<!-- Generator: Adobe Illustrator 18.1.1, SVG Export Plug-In . SVG Version: 6.00 Build 0)  -->
<svg version="1.1" id="Capa_1" xmlns="http://www.w3.org/2000/svg" xmlns:xlink="http://www.w3.org/1999/xlink" x="0px" y="0px"
	 viewBox="0 0 402.251 402.251" style="enable-background:new 0 0 402.251 402.251;" xml:space="preserve">
<g>
	<g>
		<path style="fill:#010002;" d="M284.518,125.465l-106.532,66.453c-0.006,0-0.006,0.006-0.012,0.012
			c-0.376,0.239-0.621,0.621-0.943,0.937c-0.316,0.316-0.704,0.567-0.937,0.943c-0.006,0-0.012,0.006-0.012,0.012L109.624,300.36
			c-1.468,2.357-1.122,5.412,0.847,7.375c1.152,1.152,2.679,1.748,4.225,1.748c1.086,0,2.184-0.298,3.156-0.901l106.532-66.459
			c0.006-0.006,0.006-0.012,0.012-0.012c0.418-0.263,0.698-0.68,1.044-1.038c0.274-0.292,0.621-0.507,0.841-0.847
			c0-0.006,0.006-0.006,0.012-0.012l66.453-106.532c1.468-2.357,1.122-5.412-0.847-7.375
			C289.924,124.344,286.869,124.003,284.518,125.465z M182.234,206.507l14.732,14.732l14.732,14.732l-78.315,48.857L182.234,206.507
			z M220.136,227.535l-14.732-14.732l-14.732-14.732l78.315-48.851L220.136,227.535z"/>
		<path style="fill:#010002;" d="M363.854,128.461c-8.509-15.615-19.172-29.882-31.702-42.407
			c-12.524-12.53-26.791-23.193-42.401-31.702c-10.174-5.543-20.86-10.096-31.881-13.628V5.967c0-3.294-2.667-5.967-5.967-5.967
			H150.467c-3.294,0-5.967,2.673-5.967,5.967v34.691c-27.716,8.867-53.117,24.231-74.282,45.396
			c-72.217,72.217-72.217,189.723,0,261.946c34.984,34.984,81.501,54.251,130.973,54.251S297.174,382.984,332.164,348
			C389.834,290.318,402.871,200.039,363.854,128.461z M156.428,11.928h89.503v25.365c-14.649-3.646-29.673-5.49-44.752-5.49
			c-1.474,0-2.948,0.101-4.421,0.131c-1.868,0.042-3.735,0.078-5.591,0.173c-1.414,0.078-2.822,0.203-4.236,0.31
			c-2.25,0.167-4.499,0.37-6.731,0.621c-1.038,0.119-2.071,0.245-3.103,0.376c-3.013,0.388-6.015,0.853-8.992,1.384
			c-0.298,0.054-0.597,0.101-0.889,0.155c-3.622,0.668-7.22,1.408-10.782,2.285V11.928H156.428z M323.715,339.557
			c-32.728,32.728-76.245,50.754-122.536,50.754s-89.807-18.026-122.536-50.754c-67.563-67.563-67.557-177.508,0-245.071
			c20.771-20.771,45.897-35.586,73.315-43.66c0.06-0.012,0.125,0.006,0.179-0.006c11.629-3.425,23.569-5.567,35.592-6.498
			c0.662-0.048,1.325-0.101,1.987-0.143c7.673-0.501,15.377-0.501,23.05,0.006c1.462,0.101,2.912,0.274,4.368,0.412
			c2.357,0.215,4.708,0.442,7.053,0.752c1.826,0.245,3.634,0.555,5.454,0.859c1.957,0.328,3.914,0.662,5.859,1.056
			c1.939,0.388,3.867,0.823,5.794,1.283c1.844,0.436,3.676,0.907,5.507,1.408c12.924,3.514,25.455,8.461,37.221,14.875
			c14.607,7.966,27.961,17.942,39.674,29.667c11.725,11.719,21.707,25.073,29.667,39.68
			C389.875,201.137,377.679,285.592,323.715,339.557z"/>
	</g>
</g>
<g>
</g>
<g>
</g>
<g>
</g>
<g>
</g>
<g>
</g>
<g>
</g>
<g>
</g>
<g>
</g>
<g>
</g>
<g>
</g>
<g>
</g>
<g>
</g>
<g>
</g>
<g>
</g>
<g>
</g>
</svg>
